<svg width="423" height="406" viewBox="0 0 423 406" fill="none" xmlns="http://www.w3.org/2000/svg">
<g clip-path="url(#clip0_1_150)">
<g clip-path="url(#clip1_1_150)">
<path d="M550 1H-25V431H550V1Z" fill="white"/>
<mask id="mask0_1_150" style="mask-type:luminance" maskUnits="userSpaceOnUse" x="-14" y="1" width="555" height="430">
<path d="M540.217 1H-14V431H540.217V1Z" fill="white"/>
</mask>
<g mask="url(#mask0_1_150)">
<path d="M341.585 116.209C340.748 116.209 340.084 115.294 340.084 114.139C340.084 112.984 340.748 112.069 341.585 112.069C342.422 112.069 343.086 112.984 343.086 114.139C343.086 115.294 342.422 116.209 341.585 116.209Z" fill="#59B8CA"/>
<path d="M333.214 116.209C332.377 116.209 331.713 115.294 331.713 114.139C331.713 112.984 332.377 112.069 333.214 112.069C334.051 112.069 334.715 112.984 334.715 114.139C334.715 115.294 334.051 116.209 333.214 116.209Z" fill="#59B8CA"/>
<path d="M324.872 116.209C324.035 116.209 323.371 115.294 323.371 114.139C323.371 112.984 324.035 112.069 324.872 112.069C325.709 112.069 326.373 112.984 326.373 114.139C326.373 115.294 325.709 116.209 324.872 116.209Z" fill="#59B8CA"/>
<path d="M316.501 116.209C315.664 116.209 315 115.294 315 114.139C315 112.984 315.664 112.069 316.501 112.069C317.338 112.069 318.002 112.984 318.002 114.139C318.002 115.294 317.338 116.209 316.501 116.209Z" fill="#59B8CA"/>
<path d="M345.771 105.141C344.934 105.141 344.27 104.225 344.27 103.07C344.27 101.916 344.934 101 345.771 101C346.608 101 347.272 101.916 347.272 103.07C347.272 104.225 346.608 105.141 345.771 105.141Z" fill="#59B8CA"/>
<path d="M337.4 105.141C336.563 105.141 335.899 104.225 335.899 103.07C335.899 101.916 336.563 101 337.4 101C338.237 101 338.901 101.916 338.901 103.07C338.901 104.225 338.237 105.141 337.4 105.141Z" fill="#59B8CA"/>
<path d="M329.058 105.141C328.22 105.141 327.557 104.225 327.557 103.07C327.557 101.916 328.22 101 329.058 101C329.895 101 330.559 101.916 330.559 103.07C330.559 104.225 329.866 105.141 329.058 105.141Z" fill="#59B8CA"/>
<path d="M320.687 105.141C319.849 105.141 319.186 104.225 319.186 103.07C319.186 101.916 319.849 101 320.687 101C321.524 101 322.188 101.916 322.188 103.07C322.188 104.225 321.524 105.141 320.687 105.141Z" fill="#59B8CA"/>
<path d="M345.771 126.442C344.934 126.442 344.27 125.526 344.27 124.371C344.27 123.217 344.934 122.301 345.771 122.301C346.608 122.301 347.272 123.217 347.272 124.371C347.272 125.526 346.608 126.442 345.771 126.442Z" fill="#59B8CA"/>
<path d="M337.4 126.442C336.563 126.442 335.899 125.526 335.899 124.371C335.899 123.217 336.563 122.301 337.4 122.301C338.237 122.301 338.901 123.217 338.901 124.371C338.901 125.526 338.237 126.442 337.4 126.442Z" fill="#59B8CA"/>
<path d="M329.058 126.442C328.22 126.442 327.557 125.526 327.557 124.371C327.557 123.217 328.22 122.301 329.058 122.301C329.895 122.301 330.559 123.217 330.559 124.371C330.559 125.526 329.866 126.442 329.058 126.442Z" fill="#59B8CA"/>
<path d="M320.687 126.442C319.849 126.442 319.186 125.526 319.186 124.371C319.186 123.217 319.849 122.301 320.687 122.301C321.524 122.301 322.188 123.217 322.188 124.371C322.188 125.526 321.524 126.442 320.687 126.442Z" fill="#59B8CA"/>
<path d="M291.852 242.702H289.774V239.835C289.774 239.158 289.369 238.641 288.908 238.641C288.446 238.641 288.042 239.198 288.042 239.835V242.702H285.963C285.473 242.702 285.097 243.259 285.097 243.896C285.097 244.573 285.501 245.091 285.963 245.091H288.042V247.957C288.042 248.634 288.446 249.152 288.908 249.152C289.369 249.152 289.774 248.594 289.774 247.957V245.091H291.852C292.343 245.091 292.718 244.533 292.718 243.896C292.718 243.219 292.314 242.702 291.852 242.702Z" fill="#59B8CA"/>
<path d="M24.2178 105.474H22.1395V102.607C22.1395 101.931 21.7354 101.413 21.2736 101.413C20.8117 101.413 20.4076 101.97 20.4076 102.607V105.474H18.3293C17.8386 105.474 17.4633 106.031 17.4633 106.669C17.4633 107.345 17.8674 107.863 18.3293 107.863H20.4076V110.73C20.4076 111.406 20.8117 111.924 21.2736 111.924C21.7354 111.924 22.1395 111.367 22.1395 110.73V107.863H24.2178C24.7086 107.863 25.0838 107.306 25.0838 106.669C25.1127 106.031 24.7086 105.474 24.2178 105.474Z" fill="#59B8CA"/>
<path d="M376.33 50.9352H374.252V48.0685C374.252 47.3917 373.848 46.8741 373.386 46.8741C372.924 46.8741 372.52 47.4315 372.52 48.0685V50.9352H370.442C369.951 50.9352 369.576 51.4926 369.576 52.1296C369.576 52.8065 369.98 53.3241 370.442 53.3241H372.52V56.1908C372.52 56.8676 372.924 57.3852 373.386 57.3852C373.848 57.3852 374.252 56.8278 374.252 56.1908V53.3241H376.33C376.821 53.3241 377.196 52.7667 377.196 52.1296C377.225 51.4528 376.821 50.9352 376.33 50.9352Z" fill="#59B8CA"/>
<path d="M475.249 327.578C436.656 321.008 400.95 287.604 382.216 240.622C374.711 221.83 369.804 200.688 370.006 179.228C370.208 155.06 377.136 131.131 389.028 113.374C400.921 95.6167 417.663 84.1898 435.098 82C450.743 101.191 458.652 130.733 463.848 158.723C468.235 182.254 471.699 206.143 474.239 230.191C477.819 264.153 485.468 296.243 475.249 327.578Z" fill="url(#paint0_linear_1_150)"/>
<path d="M430.205 122.792L382.029 171.525C382 172.281 382 173.078 382 173.834C382 175.268 382.058 176.661 382.144 178.015L434.679 124.862C433.236 124.026 431.735 123.349 430.205 122.792Z" fill="#00A1B6"/>
<path d="M386.907 147.915L412.424 122.115C401.484 125.26 392.247 134.895 386.907 147.915Z" fill="#00A1B6"/>
<path d="M457.05 158.784L398.857 217.631C400.012 218.706 401.224 219.701 402.466 220.617L458.003 164.438C457.743 162.527 457.425 160.616 457.05 158.784Z" fill="#00A1B6"/>
<path d="M450.065 140.589L388.35 203.019C389.072 204.492 389.822 205.925 390.631 207.319L452.345 144.889C451.652 143.376 450.873 141.943 450.065 140.589Z" fill="#00A1B6"/>
<path d="M454.164 149.069L393.027 210.942C393.95 212.216 394.903 213.45 395.942 214.605L455.809 154.006C455.318 152.334 454.77 150.662 454.164 149.069Z" fill="#00A1B6"/>
<path d="M444.84 133.263L384.858 193.941C385.348 195.613 385.926 197.245 386.532 198.838L447.727 136.926C446.803 135.652 445.85 134.418 444.84 133.263Z" fill="#00A1B6"/>
<path d="M438.316 127.211L382.635 183.549C382.895 185.46 383.212 187.331 383.616 189.163L441.896 130.197C440.741 129.122 439.558 128.127 438.316 127.211Z" fill="#00A1B6"/>
<path d="M458.032 183.071L415.34 226.27C416.956 226.549 418.63 226.708 420.304 226.708C420.68 226.708 421.084 226.669 421.459 226.669L456.473 191.233C457.166 188.606 457.685 185.858 458.032 183.071Z" fill="#00A1B6"/>
<path d="M458.609 173.834C458.609 172.52 458.551 171.206 458.493 169.932L406.103 222.926C407.575 223.722 409.076 224.439 410.606 224.996L458.551 176.502C458.609 175.626 458.609 174.71 458.609 173.834Z" fill="#00A1B6"/>
<path d="M420.304 121C420.016 121 419.727 121.04 419.467 121.04L384.021 156.873C383.386 159.501 382.866 162.208 382.548 164.995L425.529 121.518C423.826 121.159 422.065 121 420.304 121Z" fill="#00A1B6"/>
<path d="M98.0122 259.553C89.5337 239.957 79.2652 221.173 65.2836 209.215C54.0395 199.589 41.0522 194.916 28.0969 191.366C-4.84078 182.251 -38.6005 179.457 -71.5382 170.341C-104.475 161.167 -137.474 144.835 -162.011 113.026C-175.551 159.153 -191.285 204.018 -209.17 247.267C-181.561 245.036 -153.334 244.941 -127.041 256.598C-100.748 268.254 -76.4047 293.438 -66.4199 329.253C-61.4075 347.28 -60.1868 366.868 -59.0908 386.159C-57.6248 411.369 -56.1163 436.579 -54.6502 461.788C-54.322 467.647 -54.0853 474.214 -56.7171 478.862C1.85019 479.46 60.3756 479.998 118.943 480.595C124.587 480.647 130.616 480.525 135.24 476.072C143.292 468.28 137.793 452.378 137.213 441.549C136.339 425.809 134.912 410.181 132.975 394.667C129.14 363.995 123.094 333.775 114.444 305.069C109.793 289.293 104.33 274.102 98.0122 259.553Z" fill="url(#paint1_linear_1_150)"/>
<path d="M235.984 445.933L223.931 401.739C215.918 372.358 206.847 339.077 189.955 316.856C168.447 288.611 137.771 282.883 110.686 277.896C56.7717 267.872 12.089 243.281 -25.9266 202.593L-25.6381 202C12.2813 242.59 56.8999 267.181 110.75 277.155C137.899 282.192 168.671 287.87 190.275 316.313C207.263 338.682 216.367 372.062 224.38 401.492L236.432 445.686L235.984 445.933Z" fill="#ABC5CC"/>
<path d="M231.56 450.97C228.098 435.416 224.572 420.108 221.079 405.492C220.598 403.467 220.117 401.443 219.604 399.418C214.732 379.42 209.283 358.384 201.366 340.064C197.519 331.176 193.16 323.423 188.416 317.152C186.941 315.177 185.371 313.301 183.8 311.572C178.095 305.301 171.684 300.215 164.151 296.018C147.708 286.883 129.373 284.118 111.648 281.402C109.981 281.155 108.314 280.908 106.647 280.661C55.0729 272.662 9.8452 248.762 -27.8178 209.703L-27.5614 209.111C10.0055 248.12 55.169 271.97 106.679 279.92C108.346 280.167 110.013 280.414 111.648 280.661C129.405 283.377 147.772 286.142 164.28 295.277C171.844 299.475 178.287 304.561 184.025 310.881C185.627 312.659 187.198 314.535 188.672 316.51C193.448 322.88 197.84 330.633 201.718 339.57C209.667 357.94 215.117 379.074 220.021 399.072C220.502 401.097 221.014 403.122 221.495 405.146C224.989 419.762 228.515 435.07 231.977 450.624L231.56 450.97Z" fill="#ABC5CC"/>
<path d="M227.137 456.007C224.412 440.255 221.399 424.552 218.226 409.294C217.777 407.22 217.36 405.097 216.88 403.023C212.424 382.333 207.424 360.557 199.795 341.398C196.077 332.065 191.75 324.016 186.877 317.449C185.371 315.424 183.768 313.498 182.101 311.721C176.236 305.351 169.6 300.363 161.747 296.413C145.913 288.463 128.444 286.438 111.583 284.513C108.57 284.167 105.589 283.821 102.608 283.476C52.5407 277.155 8.01818 254.737 -29.6769 216.863L-29.4205 216.221C8.2105 254.046 52.6689 276.464 102.64 282.735C105.621 283.13 108.602 283.476 111.583 283.772C128.508 285.698 145.977 287.722 161.876 295.722C169.761 299.672 176.46 304.709 182.358 311.128C184.025 312.906 185.627 314.881 187.166 316.905C192.07 323.473 196.461 331.62 200.18 341.003C207.808 360.162 212.809 382.037 217.296 402.776C217.745 404.899 218.194 406.973 218.643 409.047C221.816 424.305 224.829 440.008 227.553 455.76L227.137 456.007Z" fill="#ABC5CC"/>
<path d="M222.713 461.043C220.694 445.143 218.226 428.996 215.373 413.096C214.988 410.923 214.604 408.8 214.187 406.628C210.148 385.246 205.565 362.68 198.288 342.78C194.731 333.003 190.371 324.609 185.371 317.844C183.832 315.72 182.165 313.745 180.467 311.918C174.473 305.499 167.581 300.561 159.407 296.857C143.958 289.846 127.033 288.562 110.718 287.327C106.743 287.031 102.64 286.735 98.6337 286.34C49.9763 281.599 6.19109 260.662 -31.504 224.023L-31.2475 223.381C6.38342 259.922 50.0725 280.859 98.6658 285.599C102.672 285.994 106.775 286.29 110.718 286.587C127.097 287.821 144.022 289.105 159.536 296.166C167.741 299.919 174.665 304.857 180.723 311.326C182.422 313.153 184.089 315.177 185.659 317.3C190.692 324.115 195.083 332.559 198.673 342.435C205.981 362.433 210.565 385.049 214.636 406.479C215.053 408.652 215.437 410.825 215.822 412.948C218.675 428.848 221.143 444.995 223.162 460.945L222.713 461.043Z" fill="#ABC5CC"/>
<path d="M218.29 466.031C216.976 449.933 215.02 433.391 212.52 416.849C212.168 414.627 211.815 412.405 211.463 410.183C207.84 388.11 203.706 364.803 196.718 344.064C193.288 333.842 188.961 325.102 183.832 318.14C182.23 315.967 180.531 313.943 178.8 312.066C172.71 305.647 165.401 300.66 157.035 297.203C141.778 290.981 125.238 290.339 109.211 289.747C104.403 289.549 99.4351 289.401 94.6271 289.056C47.2839 285.797 4.23584 266.242 -33.3631 231.084L-33.1066 230.442C4.3961 265.6 47.38 285.056 94.6591 288.315C99.4992 288.661 104.435 288.809 109.244 289.006C125.27 289.599 141.874 290.191 157.164 296.462C165.594 299.919 172.966 304.956 179.056 311.424C180.819 313.301 182.55 315.325 184.153 317.547C189.346 324.609 193.705 333.398 197.135 343.718C204.154 364.507 208.289 387.863 211.911 409.985C212.264 412.207 212.616 414.479 212.969 416.701C215.501 433.243 217.457 449.834 218.739 465.932L218.29 466.031Z" fill="#ABC5CC"/>
<path d="M213.867 471.067C213.257 454.772 211.847 437.835 209.668 420.651C209.379 418.33 209.058 416.01 208.738 413.788C205.533 391.024 201.846 366.976 195.147 345.397C191.878 334.731 187.55 325.695 182.294 318.436C180.659 316.214 178.928 314.091 177.101 312.214C170.851 305.696 163.286 300.758 154.631 297.598C139.47 292.068 123.123 292.068 107.32 292.117C101.807 292.117 96.1336 292.117 90.5883 291.92C45.1683 289.994 1.63947 271.427 -35.2222 238.195L-34.9658 237.553C1.83179 270.736 45.2645 289.253 90.6203 291.129C96.1336 291.376 101.839 291.327 107.32 291.327C123.155 291.278 139.534 291.278 154.76 296.857C163.478 300.067 171.107 305.005 177.389 311.573C179.217 313.449 180.979 315.572 182.614 317.844C187.935 325.152 192.294 334.287 195.596 345.002C202.295 366.63 205.981 390.727 209.219 413.541C209.539 415.812 209.86 418.133 210.148 420.454C212.328 437.638 213.738 454.624 214.379 470.969L213.867 471.067Z" fill="#ABC5CC"/>
<path d="M209.924 476.104H209.443C209.507 459.611 208.642 442.23 206.783 424.453C206.526 422.034 206.27 419.664 206.013 417.343C203.225 393.888 199.987 369.099 193.609 346.681C190.467 335.62 186.172 326.189 180.755 318.732C179.088 316.412 177.293 314.288 175.434 312.363C169.023 305.746 161.234 300.907 152.259 297.944C137.066 293.006 120.815 293.598 105.109 294.24C99.0184 294.487 92.7038 294.734 86.5816 294.635C42.3155 293.993 -0.444007 276.908 -37.0813 245.306L-36.8569 244.664C-0.283742 276.266 42.3796 293.302 86.5816 293.944C92.7038 294.043 99.0184 293.796 105.109 293.549C120.847 292.957 137.13 292.315 152.388 297.302C161.427 300.265 169.28 305.153 175.723 311.819C177.614 313.745 179.409 315.918 181.108 318.239C186.557 325.794 190.916 335.275 194.089 346.434C200.5 368.902 203.738 393.74 206.526 417.244C206.815 419.565 207.071 421.935 207.296 424.355C209.123 442.131 210.02 459.562 209.924 476.104Z" fill="#ABC5CC"/>
<path d="M205.533 481.141L205.052 481.091C205.821 464.401 205.436 446.625 203.962 428.206C203.77 425.787 203.545 423.318 203.321 420.898C200.949 396.752 198.16 371.223 192.07 348.014C189.089 336.509 184.762 326.781 179.249 319.078C177.55 316.708 175.691 314.486 173.799 312.56C167.229 305.845 159.183 301.055 149.92 298.388C134.63 293.993 118.411 295.179 102.673 296.364C96.0695 296.857 89.21 297.401 82.5749 297.45C81.8697 297.45 81.1645 297.45 80.4594 297.45C38.0204 297.45 -3.23266 281.896 -38.9404 252.416L-38.716 251.774C-2.46337 281.698 39.4628 297.253 82.5749 296.709C89.21 296.611 96.0695 296.117 102.673 295.623C118.411 294.438 134.694 293.203 150.016 297.648C159.343 300.363 167.421 305.153 174.088 311.918C176.011 313.893 177.87 316.115 179.601 318.486C185.179 326.288 189.538 336.114 192.551 347.718C198.641 371.025 201.462 396.604 203.834 420.799C204.058 423.219 204.283 425.688 204.475 428.107C205.917 446.575 206.27 464.401 205.533 481.141Z" fill="#ABC5CC"/>
<path d="M201.109 486.227L200.628 486.128C202.071 469.24 202.231 451.019 201.109 432.008C200.949 429.54 200.789 427.021 200.596 424.503C198.673 399.665 196.301 373.445 190.499 349.348C187.711 337.595 183.287 327.226 177.678 319.374C175.947 316.905 174.056 314.683 172.069 312.708C165.305 305.894 157.035 301.203 147.483 298.734C132.066 294.833 115.75 296.611 99.98 298.388C92.8962 299.178 85.5879 299.968 78.5041 300.265C76.3244 300.363 74.1127 300.413 71.9331 300.413C32.0584 300.413 -6.79061 286.389 -40.8636 259.576L-40.6392 258.934C-4.77123 287.13 36.4177 301.203 78.472 299.573C85.5559 299.277 92.8641 298.487 99.948 297.697C115.75 295.969 132.066 294.142 147.548 298.092C157.164 300.561 165.498 305.252 172.325 312.165C174.312 314.19 176.204 316.461 177.966 318.93C183.608 326.831 188.063 337.299 190.916 349.199C196.718 373.346 199.09 399.665 201.013 424.503C201.205 426.972 201.366 429.54 201.526 432.008C202.712 451.019 202.552 469.29 201.109 486.227Z" fill="#ABC5CC"/>
<path d="M196.686 491.313L196.205 491.165C198.288 474.277 198.994 455.167 198.256 435.811C198.16 433.243 198.032 430.675 197.872 428.107C196.365 402.628 194.442 375.617 188.961 350.681C186.3 338.484 181.877 327.769 176.171 319.72C174.376 317.202 172.453 314.93 170.434 312.906C163.478 305.943 154.984 301.351 145.144 299.178C129.533 295.771 113.09 298.141 97.2234 300.413C89.7549 301.499 82.0299 302.585 74.5294 303.079C33.3405 305.746 -7.17527 293.154 -42.6586 266.687L-42.4343 266.045C-7.01501 292.463 33.4367 305.005 74.5294 302.339C82.0299 301.845 89.7549 300.758 97.1913 299.672C113.09 297.401 129.565 294.981 145.24 298.438C155.144 300.61 163.735 305.301 170.722 312.264C172.774 314.288 174.729 316.609 176.524 319.177C182.294 327.324 186.749 338.138 189.442 350.434C194.955 375.469 196.878 402.48 198.385 428.009C198.545 430.576 198.673 433.144 198.769 435.712C199.474 455.167 198.769 474.376 196.686 491.313Z" fill="#ABC5CC"/>
<path d="M192.262 496.35L191.782 496.152C194.506 479.067 195.756 459.513 195.404 439.563C195.34 436.946 195.275 434.28 195.179 431.663C194.089 405.492 192.615 377.79 187.422 352.014C184.922 339.422 180.499 328.361 174.665 320.066C172.838 317.498 170.883 315.128 168.799 313.103C161.683 306.042 152.933 301.499 142.804 299.573C126.937 296.611 110.333 299.524 94.3065 302.339C86.4854 303.721 78.4079 305.153 70.5548 305.844C30.2954 309.499 -9.4831 298.438 -44.4857 273.797L-44.2933 273.106C-9.38694 297.697 30.3275 308.758 70.5227 305.104C78.3759 304.412 86.4534 302.981 94.2424 301.598C110.333 298.783 126.937 295.82 142.868 298.833C153.061 300.758 161.876 305.351 169.088 312.461C171.171 314.535 173.191 316.905 175.018 319.523C180.915 327.917 185.371 339.077 187.935 351.817C193.16 377.691 194.634 405.442 195.724 431.663C195.82 434.28 195.917 436.946 195.949 439.563C196.269 459.562 195.019 479.215 192.262 496.35Z" fill="#ABC5CC"/>
<path d="M187.839 501.436L187.39 501.238C190.788 483.955 192.583 463.957 192.551 443.415C192.551 440.699 192.519 437.983 192.455 435.317C191.814 408.504 190.756 380.061 185.852 353.397C183.48 340.361 179.088 328.954 173.094 320.411C171.235 317.745 169.216 315.375 167.068 313.251C159.76 306.091 150.785 301.598 140.368 299.968C124.213 297.401 107.416 300.907 91.1332 304.314C83.0236 305.993 74.6256 307.721 66.4519 308.708C27.026 313.301 -11.9833 303.721 -46.4409 280.957L-46.2486 280.266C-11.8871 302.98 27.058 312.56 66.3878 307.968C74.5294 307.03 82.9275 305.252 91.037 303.573C107.32 300.166 124.18 296.709 140.368 299.228C150.849 300.907 159.92 305.4 167.293 312.609C169.44 314.733 171.492 317.152 173.383 319.819C179.409 328.46 183.864 339.966 186.268 353.15C191.173 379.913 192.23 408.356 192.871 435.267C192.935 437.934 192.968 440.699 192.968 443.415C193.032 464.006 191.237 484.054 187.839 501.436Z" fill="#ABC5CC"/>
<path d="M183.416 506.472L182.967 506.225C187.006 488.745 189.346 468.302 189.698 447.168C189.73 444.403 189.762 441.588 189.73 438.872C189.506 411.368 188.897 382.234 184.313 354.681C182.101 341.249 177.678 329.497 171.588 320.708C169.697 317.992 167.613 315.523 165.434 313.4C157.933 306.141 148.702 301.746 138.028 300.363C121.552 298.24 104.5 302.289 87.9599 306.24C79.5619 308.215 70.9074 310.289 62.4773 311.523C23.8206 317.004 -14.4514 308.906 -48.268 288.068L-48.0757 287.377C-14.3232 308.165 23.8847 316.264 62.4132 310.733C70.8433 309.548 79.4978 307.474 87.8638 305.499C104.403 301.548 121.52 297.499 138.028 299.623C148.798 301.005 158.093 305.449 165.658 312.807C167.87 314.93 169.953 317.449 171.876 320.164C178.063 329.053 182.486 340.904 184.73 354.483C189.346 382.135 189.955 411.319 190.179 438.823C190.211 441.588 190.179 444.353 190.147 447.168C189.826 468.401 187.486 488.893 183.416 506.472Z" fill="#ABC5CC"/>
<path d="M178.992 511.558L178.543 511.262C183.223 493.535 186.108 472.697 186.845 450.921C186.941 448.106 187.006 445.242 187.038 442.427C187.23 415.516 187.102 384.407 182.775 355.964C180.691 342.089 176.3 329.991 170.049 321.004C168.126 318.239 166.01 315.72 163.767 313.548C156.074 306.141 146.618 301.845 135.624 300.709C118.795 299.03 101.422 303.622 84.6263 308.116C76.0039 310.387 67.125 312.807 58.4385 314.239C20.5511 320.658 -16.9837 314.041 -50.1271 295.129L-49.9668 294.438C-16.9196 313.301 20.5511 319.868 58.3744 313.498C67.0289 312.017 75.9398 309.647 84.5302 307.375C101.358 302.882 118.763 298.24 135.656 299.968C146.714 301.104 156.266 305.449 164.023 312.906C166.299 315.078 168.447 317.646 170.37 320.461C176.684 329.596 181.108 341.793 183.223 355.816C187.551 384.357 187.711 415.466 187.486 442.427C187.454 445.291 187.39 448.155 187.294 450.97C186.589 472.796 183.704 493.782 178.992 511.558Z" fill="#ABC5CC"/>
<path d="M174.569 516.595L174.12 516.299C179.473 498.374 182.871 477.092 183.993 454.723C184.153 451.859 184.249 448.896 184.313 446.032C184.922 418.478 185.243 386.678 181.204 357.347C179.281 343.076 174.889 330.633 168.511 321.35C166.555 318.486 164.376 315.918 162.1 313.745C154.247 306.24 144.535 301.993 133.252 301.153C116.007 299.87 98.3132 305.054 81.1646 310.091C72.3819 312.659 63.2786 315.375 54.3998 317.103C16.6406 324.51 -19.1312 319.523 -51.9862 302.339L-51.8259 301.647C-19.0351 318.782 16.6727 323.769 54.3677 316.362C63.2145 314.634 72.2857 311.968 81.1004 309.4C98.2491 304.363 116.007 299.129 133.284 300.413C144.631 301.252 154.407 305.548 162.356 313.153C164.696 315.375 166.876 317.942 168.863 320.856C175.306 330.238 179.729 342.78 181.685 357.248C185.723 386.678 185.403 418.528 184.794 446.131C184.73 449.044 184.634 451.958 184.473 454.871C183.351 477.24 179.922 498.621 174.569 516.595Z" fill="#ABC5CC"/>
<path d="M170.145 521.681L169.729 521.335C175.723 503.164 179.665 481.437 181.14 458.525C181.332 455.562 181.492 452.6 181.588 449.587C182.614 421.441 183.383 388.851 179.665 358.631C177.87 343.916 173.479 331.127 167.004 321.646C165.017 318.732 162.805 316.115 160.433 313.893C152.388 306.24 142.419 302.092 130.88 301.499C113.218 300.61 95.1078 306.437 77.6065 312.017C68.6636 314.881 59.4001 317.844 50.393 319.868C13.2749 328.115 -21.7917 324.609 -53.8454 309.4L-53.7172 308.708C-21.7597 323.868 13.2429 327.374 50.2969 319.128C59.3039 317.152 68.5354 314.19 77.4783 311.326C95.0117 305.696 113.154 299.919 130.88 300.808C142.515 301.4 152.516 305.598 160.657 313.301C163.029 315.572 165.273 318.189 167.293 321.152C173.864 330.732 178.287 343.669 180.114 358.532C183.832 388.851 183.063 421.441 182.037 449.686C181.941 452.649 181.781 455.661 181.588 458.624C180.114 481.635 176.139 503.411 170.145 521.681Z" fill="#ABC5CC"/>
<path d="M165.722 526.718L165.305 526.372C171.94 508.003 176.428 485.832 178.287 462.327C178.543 459.315 178.736 456.254 178.864 453.192C180.274 424.404 181.524 391.122 178.095 359.964C176.46 344.854 172.069 331.67 165.433 321.942C163.382 318.979 161.138 316.313 158.734 314.041C150.496 306.289 140.303 302.19 128.476 301.894C110.333 301.4 91.8063 307.82 73.8883 314.041C64.8492 317.152 55.4895 320.411 46.3863 322.683C9.81313 331.769 -24.5484 329.744 -55.7045 316.56L-55.5763 315.868C-24.4842 329.003 9.78108 331.077 46.2902 321.991C55.3934 319.72 64.721 316.51 73.7922 313.35C91.7422 307.128 110.301 300.709 128.508 301.203C140.432 301.549 150.689 305.647 158.991 313.498C161.427 315.77 163.703 318.486 165.786 321.498C172.485 331.324 176.909 344.607 178.575 359.915C182.005 391.122 180.787 424.503 179.345 453.291C179.184 456.352 178.992 459.414 178.768 462.426C176.877 486.029 172.389 508.25 165.722 526.718Z" fill="#ABC5CC"/>
<path d="M161.299 531.804L160.882 531.409C168.158 512.793 173.19 490.227 175.434 466.129C175.723 463.068 175.979 459.908 176.171 456.797C177.999 427.416 179.697 393.344 176.588 361.297C175.082 345.743 170.722 332.262 163.959 322.288C161.876 319.226 159.6 316.51 157.132 314.239C148.701 306.388 138.284 302.339 126.168 302.289C126.072 302.289 125.975 302.289 125.879 302.289C107.288 302.289 88.4086 309.301 70.106 316.066C61.0028 319.424 51.579 322.93 42.4117 325.448C6.28726 335.423 -27.337 334.83 -57.4995 323.67L-57.3712 322.93C-27.2729 334.089 6.28726 334.682 42.3476 324.707C51.5149 322.189 60.9066 318.683 70.0099 315.325C88.3125 308.56 107.256 301.548 125.879 301.548C125.975 301.548 126.072 301.548 126.168 301.548C138.348 301.598 148.862 305.647 157.388 313.597C159.888 315.918 162.228 318.683 164.312 321.745C171.171 331.818 175.562 345.447 177.101 361.199C180.242 393.295 178.543 427.416 176.716 456.846C176.524 459.957 176.268 463.117 175.979 466.179C173.639 490.424 168.607 513.089 161.299 531.804Z" fill="#ABC5CC"/>
<path d="M156.875 536.841L156.459 536.446C164.376 517.632 169.953 494.621 172.581 469.882C172.902 466.722 173.223 463.562 173.447 460.352C175.691 430.33 177.838 395.567 175.018 362.631C173.671 346.632 169.28 332.806 162.388 322.633C160.273 319.523 157.933 316.757 155.401 314.387C146.778 306.388 136.104 302.437 123.732 302.684C104.468 303.03 84.9469 310.733 66.0673 318.189C56.9641 321.794 47.5082 325.497 38.3409 328.263C2.08826 339.274 -29.9013 340.114 -59.4226 330.781L-59.3265 330.04C-29.8692 339.324 2.05621 338.484 38.2448 327.522C47.4121 324.757 56.8359 321.053 65.9391 317.449C84.8507 309.992 104.435 302.289 123.732 301.944C136.201 301.746 146.939 305.696 155.657 313.745C158.221 316.115 160.593 318.93 162.709 322.041C169.697 332.361 174.088 346.335 175.466 362.482C178.287 395.517 176.139 430.33 173.896 460.402C173.671 463.611 173.351 466.821 173.03 469.981C170.402 494.819 164.825 517.928 156.875 536.841Z" fill="#ABC5CC"/>
<path d="M152.452 541.927L152.067 541.532C160.625 522.471 166.716 499.016 169.729 473.734C170.113 470.524 170.434 467.265 170.722 464.006C173.383 433.391 175.979 397.887 173.447 364.013C172.229 347.619 167.87 333.447 160.85 322.979C158.702 319.769 156.298 316.955 153.734 314.585C145.047 306.585 133.829 302.585 121.36 303.079C101.487 303.82 81.3568 312.214 61.9003 320.362C52.8291 324.164 43.4374 328.065 34.3342 331.077C-1.66204 343.027 -32.9464 345.249 -61.2497 337.941L-61.1856 337.2C-32.9143 344.508 -1.6941 342.286 34.238 330.386C43.3412 327.374 52.733 323.473 61.7721 319.671C81.2607 311.523 101.422 303.129 121.36 302.388C133.957 301.894 145.24 305.943 153.99 313.992C156.587 316.412 159.023 319.226 161.202 322.485C168.318 333.052 172.71 347.372 173.96 363.964C176.492 397.887 173.864 433.49 171.235 464.154C170.947 467.413 170.626 470.722 170.242 473.931C167.164 499.214 161.042 522.767 152.452 541.927Z" fill="#ABC5CC"/>
<path d="M148.028 546.963L147.644 546.519C156.811 527.212 163.478 503.361 166.876 477.487C167.293 474.228 167.677 470.87 168.03 467.562C171.075 436.304 174.152 400.06 171.94 365.297C170.883 348.706 166.427 333.793 159.343 323.275C157.164 320.016 154.728 317.152 152.067 314.733C143.188 306.635 131.745 302.734 118.988 303.474C98.4094 304.659 77.6386 313.795 57.541 322.633C48.598 326.584 39.3346 330.633 30.3275 333.892C-6.02132 346.977 -35.703 350.533 -63.1088 345.052L-63.0447 344.311C-35.735 349.743 -6.08543 346.237 30.2313 333.151C39.2063 329.942 48.4698 325.843 57.4128 321.893C77.5425 313.054 98.3453 303.919 118.988 302.684C131.841 301.944 143.381 305.894 152.356 314.041C155.016 316.461 157.484 319.374 159.696 322.683C166.844 333.349 171.363 348.409 172.421 365.198C174.633 400.06 171.588 436.354 168.511 467.611C168.19 470.919 167.805 474.277 167.357 477.585C163.927 503.608 157.26 527.607 148.028 546.963Z" fill="#ABC5CC"/>
<path d="M143.605 552L143.22 551.556C154.375 529.384 162.004 501.584 165.305 471.166C168.767 439.317 172.293 402.331 170.37 366.68C169.152 344.212 161.876 325.349 150.4 314.93C141.329 306.684 129.63 302.882 116.584 303.869C95.204 305.499 73.696 315.424 52.8932 325.053C44.1105 329.102 35.0714 333.299 26.2567 336.707C1.41511 346.335 -31.3757 356.853 -65 352.212L-64.9679 351.471C-31.4078 356.113 1.35099 345.644 26.1284 336.015C34.9111 332.608 43.9823 328.411 52.733 324.362C73.5678 314.782 95.1078 304.808 116.52 303.178C129.662 302.19 141.425 306.042 150.593 314.338C162.196 324.855 169.568 343.965 170.786 366.63C172.71 402.381 169.184 439.415 165.722 471.314C162.453 501.831 154.792 529.779 143.605 552Z" fill="#ABC5CC"/>
<path d="M323 -9L307.678 46.5668C299.798 75.1632 284.572 93 268.01 93H-64V-5.70042L323 -9Z" fill="#00A1B6"/>
</g>
</g>
</g>
<defs>
<linearGradient id="paint0_linear_1_150" x1="369.996" y1="204.775" x2="480.366" y2="204.775" gradientUnits="userSpaceOnUse">
<stop stop-color="white" stop-opacity="0"/>
<stop offset="0.231" stop-color="#E6F2F4" stop-opacity="0.2812"/>
<stop offset="0.6163" stop-color="#C2DEE4" stop-opacity="0.7502"/>
<stop offset="0.8215" stop-color="#B4D7DE"/>
</linearGradient>
<linearGradient id="paint1_linear_1_150" x1="-188.721" y1="433.86" x2="158.197" y2="292.943" gradientUnits="userSpaceOnUse">
<stop stop-color="#B4D7DE"/>
<stop offset="0.6227" stop-color="#E6F1F4" stop-opacity="0.3773"/>
<stop offset="1" stop-color="white" stop-opacity="0"/>
</linearGradient>
<clipPath id="clip0_1_150">
<rect width="423" height="406" fill="white"/>
</clipPath>
<clipPath id="clip1_1_150">
<rect width="575" height="430" fill="white" transform="translate(-25 1)"/>
</clipPath>
</defs>
</svg>
